<?xml version="1.0" encoding="utf-8"?><svg xmlns="http://www.w3.org/2000/svg" xmlns:xlink="http://www.w3.org/1999/xlink"><symbol viewBox="0 0 17 30" id="facebook" xmlns="http://www.w3.org/2000/svg"><path d="M10.62 30h-4.8a1.456 1.456 0 0 1-1.453-1.455V17.709h-2.8a1.456 1.456 0 0 1-1.453-1.456V11.61c0-.802.652-1.455 1.453-1.455h2.8V7.83c0-2.306.723-4.267 2.091-5.673C7.832.746 9.752 0 12.011 0l3.66.006c.8.001 1.451.654 1.451 1.455v4.311c0 .803-.651 1.456-1.453 1.456h-2.464c-.752 0-.943.151-.984.198-.067.076-.148.293-.148.892v1.837h3.411c.257 0 .505.063.72.182.46.258.747.746.747 1.273l-.002 4.644c0 .802-.652 1.454-1.453 1.454h-3.423v10.837c0 .802-.652 1.455-1.453 1.455zm-4.496-1.759h4.192v-11.32c0-.536.436-.971.971-.971h3.905l.002-4.036h-3.907a.972.972 0 0 1-.97-.972V8.318c0-.688.07-1.469.587-2.056.626-.71 1.613-.792 2.3-.792l2.162-.001V1.764L12.01 1.76c-3.63 0-5.886 2.326-5.886 6.07v3.113a.972.972 0 0 1-.97.972H1.87v4.036h3.283c.535 0 .97.435.97.971v11.32zm9.544-26.476z"/></symbol><symbol viewBox="0 0 30 30" id="instagram" xmlns="http://www.w3.org/2000/svg"><path d="M21.539.512H7.994C3.586.512 0 4.096 0 8.502V22.04c0 4.405 3.586 7.99 7.994 7.99H21.54c4.408 0 7.994-3.585 7.994-7.99V8.502c0-4.406-3.586-7.99-7.994-7.99zm6.263 21.528a6.27 6.27 0 0 1-6.263 6.26H7.994a6.268 6.268 0 0 1-6.263-6.26V8.502c0-3.452 2.81-6.26 6.263-6.26H21.54a6.268 6.268 0 0 1 6.263 6.26V22.04z"/><path d="M14.767 7.2c-4.453 0-8.076 3.62-8.076 8.07 0 4.451 3.623 8.072 8.076 8.072 4.452 0 8.075-3.62 8.075-8.071 0-4.45-3.623-8.071-8.075-8.071zm0 14.411c-3.498 0-6.344-2.844-6.344-6.34s2.846-6.34 6.344-6.34a6.35 6.35 0 0 1 6.343 6.34 6.35 6.35 0 0 1-6.343 6.34zm8.268-17.278a2.388 2.388 0 0 0-2.386 2.385 2.388 2.388 0 0 0 2.386 2.385 2.388 2.388 0 0 0 2.386-2.385 2.388 2.388 0 0 0-2.386-2.385zm0 3.04a.655.655 0 1 1 .001-1.311.655.655 0 0 1-.001 1.31z"/></symbol><symbol viewBox="0 0 31 22" id="telegram" xmlns="http://www.w3.org/2000/svg"><path d="M30.312.382a1.117 1.117 0 0 0-1.216-.318L1.563 9.609c-.55.192-.936.657-1.008 1.214a1.445 1.445 0 0 0 .662 1.402l3.935 2.577c.382.25.872.277 1.28.07l8.537-4.32-6.653 4.767c-.313.224-.5.58-.5.955v4.415c0 .455.261.872.68 1.089.42.216.927.195 1.326-.057l2.99-1.903 2.94 1.923a1.596 1.596 0 0 0 1.187.228 1.566 1.566 0 0 0 1.003-.671L30.399 1.592c.242-.38.207-.865-.087-1.21zM16.56 20.227l-3.044-1.992a1.276 1.276 0 0 0-1.387-.008L9.576 19.85v-3.328l11.75-8.416c.524-.376.656-1.06.306-1.591a1.263 1.263 0 0 0-1.63-.418L5.888 13.24 2.56 11.06l25.354-8.79L16.56 20.227z"/></symbol><symbol viewBox="0 0 30 30" id="whatsapp" xmlns="http://www.w3.org/2000/svg"><path d="M25.908 4.25A14.23 14.23 0 0 0 15.781.058h-.001c-1.892 0-3.736.366-5.48 1.088A14.251 14.251 0 0 0 5.653 4.25a14.217 14.217 0 0 0-4.195 10.122c0 2.28.55 4.546 1.594 6.565L.646 27.811c-.17.485-.05 1.012.314 1.375a1.316 1.316 0 0 0 1.375.314l6.878-2.406a14.37 14.37 0 0 0 6.568 1.593c3.826 0 7.422-1.49 10.127-4.193a14.217 14.217 0 0 0 4.195-10.122A14.22 14.22 0 0 0 25.908 4.25zm-1.225 19.02a12.51 12.51 0 0 1-8.902 3.685c-2.057 0-4.1-.508-5.91-1.47a1.334 1.334 0 0 0-1.064-.083L2.56 27.587l2.187-6.244a1.333 1.333 0 0 0-.083-1.064 12.61 12.61 0 0 1-1.472-5.907A12.5 12.5 0 0 1 6.88 5.474a12.512 12.512 0 0 1 8.9-3.684h.001a12.51 12.51 0 0 1 8.902 3.685 12.497 12.497 0 0 1 3.688 8.898 12.5 12.5 0 0 1-3.688 8.898z"/><path d="M21.104 15.65a1.692 1.692 0 0 0-2.39 0l-.72.72a10.486 10.486 0 0 1-4.213-4.209l.72-.72a1.69 1.69 0 0 0 0-2.389l-1.941-1.94a1.692 1.692 0 0 0-2.39 0L8.617 8.663c-.89.89-.934 2.418-.125 4.305.702 1.639 1.988 3.44 3.62 5.07 1.632 1.632 3.434 2.917 5.073 3.619.897.384 1.713.576 2.418.576.779 0 1.422-.234 1.89-.701l1.553-1.553c.319-.319.495-.743.495-1.194 0-.451-.176-.875-.495-1.194l-1.942-1.941zm-.837 4.659c-.253.253-1.034.342-2.4-.242-1.441-.618-3.05-1.773-4.53-3.252-1.48-1.479-2.635-3.087-3.253-4.528-.585-1.364-.496-2.145-.242-2.399l1.523-1.523 1.882 1.881-.902.902a1.32 1.32 0 0 0-.245 1.539 12.217 12.217 0 0 0 5.368 5.364 1.322 1.322 0 0 0 1.539-.245l.902-.901 1.882 1.881-1.524 1.523z"/></symbol></svg>